<svg width="13" height="18" viewBox="0 0 13 18" fill="none" xmlns="http://www.w3.org/2000/svg">
<path d="M7 0C5.93913 0 4.92172 0.421427 4.17157 1.17157C3.42143 1.92172 3 2.93913 3 4H5C5.13261 4 5.25979 4.05268 5.35355 4.14645C5.44732 4.24021 5.5 4.36739 5.5 4.5C5.5 4.63261 5.44732 4.75979 5.35355 4.85355C5.25979 4.94732 5.13261 5 5 5H3V6H5C5.13261 6 5.25979 6.05268 5.35355 6.14645C5.44732 6.24021 5.5 6.36739 5.5 6.5C5.5 6.63261 5.44732 6.75979 5.35355 6.85355C5.25979 6.94732 5.13261 7 5 7H3V8H5C5.13261 8 5.25979 8.05268 5.35355 8.14645C5.44732 8.24021 5.5 8.36739 5.5 8.5C5.5 8.63261 5.44732 8.75979 5.35355 8.85355C5.25979 8.94732 5.13261 9 5 9H3C3 10.0609 3.42143 11.0783 4.17157 11.8284C4.92172 12.5786 5.93913 13 7 13C8.06087 13 9.07828 12.5786 9.82843 11.8284C10.5786 11.0783 11 10.0609 11 9H9C8.86739 9 8.74021 8.94732 8.64645 8.85355C8.55268 8.75979 8.5 8.63261 8.5 8.5C8.5 8.36739 8.55268 8.24021 8.64645 8.14645C8.74021 8.05268 8.86739 8 9 8H11V7H9C8.86739 7 8.74021 6.94732 8.64645 6.85355C8.55268 6.75979 8.5 6.63261 8.5 6.5C8.5 6.36739 8.55268 6.24021 8.64645 6.14645C8.74021 6.05268 8.86739 6 9 6H11V5H9C8.86739 5 8.74021 4.94732 8.64645 4.85355C8.55268 4.75979 8.5 4.63261 8.5 4.5C8.5 4.36739 8.55268 4.24021 8.64645 4.14645C8.74021 4.05268 8.86739 4 9 4H11C11 2.93913 10.5786 1.92172 9.82843 1.17157C9.07828 0.421427 8.06087 0 7 0Z" fill="black"/>
<path fill-rule="evenodd" clip-rule="evenodd" d="M6.5 17V14.5H7.5V17H6.5ZM3 17.5C3 17.3674 3.05268 17.2402 3.14645 17.1464C3.24021 17.0527 3.36739 17 3.5 17H10.5C10.6326 17 10.7598 17.0527 10.8536 17.1464C10.9473 17.2402 11 17.3674 11 17.5C11 17.6326 10.9473 17.7598 10.8536 17.8536C10.7598 17.9473 10.6326 18 10.5 18H3.5C3.36739 18 3.24021 17.9473 3.14645 17.8536C3.05268 17.7598 3 17.6326 3 17.5Z" fill="black"/>
<path fill-rule="evenodd" clip-rule="evenodd" d="M1.2271 10.7088C1.35056 10.6608 1.48804 10.6637 1.60935 10.717C1.73066 10.7702 1.82588 10.8694 1.8741 10.9928C2.26836 12.0066 2.95438 12.8807 3.84541 13.5046C4.73643 14.1285 5.79245 14.4742 6.87993 14.498C7.96741 14.5217 9.03752 14.2225 9.95495 13.6381C10.8724 13.0537 11.5959 12.2104 12.0341 11.2148C12.0606 11.1547 12.0986 11.1003 12.1461 11.0549C12.1935 11.0095 12.2495 10.9738 12.3107 10.95C12.372 10.9262 12.4373 10.9147 12.503 10.9161C12.5687 10.9175 12.6335 10.9319 12.6936 10.9583C12.7537 10.9848 12.8081 11.0228 12.8535 11.0703C12.899 11.1178 12.9346 11.1737 12.9584 11.235C12.9823 11.2962 12.9938 11.3615 12.9923 11.4272C12.9909 11.4929 12.9766 11.5577 12.9501 11.6178C12.4324 12.7947 11.5773 13.7915 10.493 14.4824C9.40874 15.1732 8.14392 15.527 6.85856 15.4989C5.57319 15.4709 4.32501 15.0623 3.27188 14.3248C2.21875 13.5873 1.40797 12.5541 0.942096 11.3558C0.894114 11.2322 0.897184 11.0946 0.950629 10.9733C1.00407 10.852 1.10352 10.7569 1.2271 10.7088Z" fill="black"/>
</svg>
