<svg width="277" height="271" viewBox="0 0 277 271" fill="none" xmlns="http://www.w3.org/2000/svg">
<rect width="277" height="271" fill="black"/>
<path d="M140 9C69.308 9 12 66.309 12 137C12 207.696 69.309 265 140 265C210.697 265 268 207.696 268 137C268 66.314 210.697 9.007 139.998 9.007L139.999 9.001L140 9ZM198.699 193.614C196.406 197.374 191.484 198.566 187.724 196.258C157.671 177.901 119.839 173.743 75.284 183.923C73.2208 184.393 71.0556 184.023 69.2644 182.897C67.4732 181.771 66.2026 179.979 65.732 177.916C65.4975 176.895 65.4667 175.837 65.6415 174.804C65.8163 173.771 66.1931 172.782 66.7504 171.895C67.3077 171.008 68.0346 170.239 68.8894 169.633C69.7442 169.027 70.7102 168.595 71.732 168.363C120.492 157.223 162.315 162.019 196.055 182.639C199.815 184.947 201.007 189.854 198.699 193.614ZM214.366 158.761C211.476 163.456 205.332 164.939 200.64 162.05C166.234 140.902 113.787 134.777 73.092 147.13C67.814 148.724 62.24 145.75 60.638 140.481C59.048 135.203 62.024 129.639 67.293 128.035C113.778 113.929 171.568 120.762 211.08 145.042C215.772 147.932 217.255 154.075 214.366 158.761ZM215.711 122.468C174.457 97.964 106.394 95.71 67.007 107.666C60.682 109.584 53.993 106.013 52.077 99.688C50.16 93.36 53.727 86.676 60.057 84.753C105.27 71.027 180.434 73.68 227.929 101.876C233.631 105.252 235.495 112.6 232.117 118.281C228.755 123.971 221.387 125.846 215.717 122.468H215.711Z" fill="white"/>
</svg>
